# xmcd
#
# Track frame offsets:
#	150
#	5841
#	11057
#	15172
#	20144
#	27801
#	31537
#	37202
#	45422
#	49797
#	58354
#	63780
#	72228
#	78898
#	85083
#	90707
#	96358
#	108671
#	119727
#	127550
#	136140
#	142137
#	151351
#	158797
#	169783
#	178941
#	185742
#	190234
#	198106
#	203728
#	210984
#	214709
#	220506
#	226460
#	235457
#	242341
#	248145
#	254143
#	260139
#	272443
#	278532
#	282926
#	288518
#	293940
#	297092
#	301394
#	309803
#	316136
#	326727
#	340338
#
# Disc length: 4706 seconds
#
# Revision: 1
# Processed by: cddbd v1.5.2PL0 Copyright (c) Steve Scherf et al.
# Submitted via: audiograbber 1.83.01
#
DISCID=d9126032
DTITLE=Various Artist - Karneval Top 100 CD2
DYEAR=2010
DGENRE=Comedy
TTITLE0=PH Electro - San Francisco (Original Radio Edit)
TTITLE1=Krümel - Es KÖNnte Gar Nicht SchÖNer Sein
TTITLE2=Fun-Tastic-3 - Cotton Eye Joe(Original Radio)
TTITLE3=DJ Hulpa ft. Party Atze - Kenn Nicht Deinen Namen (Scheisegal)
TTITLE4=PS Alex - Bier GehÖRt Zu Mir
TTITLE5=Libero 5 - Steigt Denn Der Alkoholpegel Noch?
TTITLE6=Schnitte - Sex Im Auto
TTITLE7=Peter Wackel - Eviva Espana
TTITLE8=Chriss Tuxi - Palma De Mallorca
TTITLE9=Tommy Vegas - Auf Der Reeperbahn Nachts Um Halb Eins (Baller-Mix)
TTITLE10=Sabotage - Wenn Man Bis Zum Hals In Der Scheise Steckt
TTITLE11=Feierfriends - Wir Sind Feierfriends
TTITLE12=Tobee - Eine Weise Rose
TTITLE13=Paparazzis - Jan Pilleman Otze
TTITLE14=Schnitte and Die Schlagermafia - Deine Mudda
TTITLE15=Yvie - Einen Tiger Im Bett
TTITLE16=Tim Toupet - DÖNer-Hitmix
TTITLE17=DJ Mox - So A SchÖNer Tag (Fliegerlied)
TTITLE18=Paveier - Heut' Brennt Mein Iglu
TTITLE19=Christian Anders - Es FÄHrt Ein Zug Nach Nirgendwo
TTITLE20=Chris Marlow - Santa Maria
TTITLE21=Roberto Rossini - Volare
TTITLE22=Baby Blue - Nah Neh Nah
TTITLE23=Tommy - Joana
TTITLE24=Jürgen Drews - Paprika (Parapapapa)
TTITLE25=Viani Di, Veerus and Maxie Devine - Dreamer 2009
TTITLE26=The Disco Boys ft. Manfed Mann's Earth Band - For You
TTITLE27=Alexander Marcus - 1,2,3
TTITLE28=Out of Office ft. the Original - I Luv U Baby
TTITLE29=Groove Bandits - Sing Hallelujah
TTITLE30=Dom Junges - Viva Colonia
TTITLE31=Chris Marlow - 7 Mal Amore
TTITLE32=Stefan Peters - Schwarze Natascha
TTITLE33=A.L.B.A. - Bette Davis Eyes
TTITLE34=Steve Angello and Laidbackluke ft. Robin S. - Show Me Love (Radio Mix)
TTITLE35=Fiesta Brazil - Lambada
TTITLE36=Stonecold - Sunshine Baby
TTITLE37=Libero 5 - Wer Hat Dem Affen Den Popo Rasiert?
TTITLE38=Howie Nuvo - Nachts Wenn Alles SchlÄFt
TTITLE39=Lollies - Arsch Im Sand (Auf Die Fresse Dj-Mix)
TTITLE40=Markus Becker - Zehn Kleine JÄGermeister
TTITLE41=DJ Abschleppdienst - Resteficken
TTITLE42=JÜrgen Markus - Eine Neue Liebe Ist Wie Ein Neues Leben
TTITLE43=Willi Herren - Michaela Du Luder
TTITLE44=Wolfgang Preiml - Zucker Im Kaffee
TTITLE45=Chris Roberts - Do You Speak English 2009
TTITLE46=Chriss Tuxi - Scheise Sind Wir Geil (ÖTzen BierkÖNig Musik Mix)
TTITLE47=Strandjäger - Annika
TTITLE48=Chriss Tuxi - Da Wo Meine Leber War
TTITLE49=Tim Toupet - Aber Dich gibt`s nur einmal für mich
EXTD=
EXTT0=
EXTT1=
EXTT2=
EXTT3=
EXTT4=
EXTT5=
EXTT6=
EXTT7=
EXTT8=
EXTT9=
EXTT10=
EXTT11=
EXTT12=
EXTT13=
EXTT14=
EXTT15=
EXTT16=
EXTT17=
EXTT18=
EXTT19=
EXTT20=
EXTT21=
EXTT22=
EXTT23=
EXTT24=
EXTT25=
EXTT26=
EXTT27=
EXTT28=
EXTT29=
EXTT30=
EXTT31=
EXTT32=
EXTT33=
EXTT34=
EXTT35=
EXTT36=
EXTT37=
EXTT38=
EXTT39=
EXTT40=
EXTT41=
EXTT42=
EXTT43=
EXTT44=
EXTT45=
EXTT46=
EXTT47=
EXTT48=
EXTT49=
PLAYORDER=
